<?xml version="1.0" encoding="UTF-8"?>
<svg version="1.1" xmlns="http://www.w3.org/2000/svg" width="512" height="512">
<path d="M0 0 C0.74765625 0.37769531 1.4953125 0.75539063 2.265625 1.14453125 C8.61639598 4.46425245 14.31047957 8.66389579 20 13 C21.39992188 14.04994141 21.39992188 14.04994141 22.828125 15.12109375 C23.54484375 15.74113281 24.2615625 16.36117187 25 17 C25 17.66 25 18.32 25 19 C25.86044922 19.36158203 25.86044922 19.36158203 26.73828125 19.73046875 C34.70308161 24.20121161 44.97779279 37.57527919 47.75 46.3828125 C47.8325 46.91648438 47.915 47.45015625 48 48 C48.66 48 49.32 48 50 48 C61.43055366 71.28554529 71.37533723 97.56296208 70 124 C62.12512178 122.64900509 54.57254531 120.54072293 47 118 C46.08992187 117.83113281 45.17984375 117.66226563 44.2421875 117.48828125 C41.46700557 115.64621799 41.46685333 114.84839197 40.77734375 111.66796875 C40.47773211 109.84426766 40.19893397 108.01706418 39.9375 106.1875 C39.61869047 104.26732323 39.29447592 102.348036 38.96484375 100.4296875 C38.72677002 99.02928223 38.72677002 99.02928223 38.48388672 97.60058594 C36.96201064 89.42146183 34.02457111 81.64150695 30.734375 74.0234375 C30 72 30 72 30 69 C29.34 69 28.68 69 28 69 C27.58041016 68.10861328 27.58041016 68.10861328 27.15234375 67.19921875 C21.81064462 56.15512698 13.60731007 39.80365504 2 34 C2 33.34 2 32.68 2 32 C1.26265625 31.73058594 0.5253125 31.46117187 -0.234375 31.18359375 C-2.8939588 30.04538204 -4.91998365 28.75823412 -7.25 27.0625 C-11.65449492 24.0554445 -15.88824529 22.40188591 -21 21 C-22.01964844 20.65195313 -23.03929687 20.30390625 -24.08984375 19.9453125 C-28.97708785 18.56015776 -33.88972735 18.61832581 -38.9375 18.625 C-39.9478833 18.62371094 -40.9582666 18.62242188 -41.99926758 18.62109375 C-49.7233944 18.72889221 -56.54337696 19.90103933 -63.91796875 22.125 C-67 23 -67 23 -71 23 C-71 23.66 -71 24.32 -71 25 C-71.59425781 25.21914062 -72.18851562 25.43828125 -72.80078125 25.6640625 C-82.99410244 29.56384013 -95.73159078 34.59738617 -102 44 C-102.66 44 -103.32 44 -104 44 C-104.2475 44.53625 -104.495 45.0725 -104.75 45.625 C-106.30652537 48.5823982 -108.03435673 51.29724051 -110 54 C-110.66 54 -111.32 54 -112 54 C-112.37705078 55.03447266 -112.37705078 55.03447266 -112.76171875 56.08984375 C-114.18634715 59.4379452 -115.95202854 62.43562732 -117.8125 65.5625 C-121.47100255 71.83929402 -124.41351819 78.20231495 -127 85 C-127.34675781 85.8559375 -127.69351563 86.711875 -128.05078125 87.59375 C-142.41986177 124.43185604 -141.42778793 174.3662496 -127 211 C-126.53109134 212.28498226 -126.06624291 213.57145345 -125.60546875 214.859375 C-122.93277237 222.23010472 -120.12309444 229.3817007 -116.39453125 236.30078125 C-115 239 -115 239 -114.07421875 241.66796875 C-112.99885408 244.45152586 -112.25557271 246.02294942 -110 248 C-106.65035911 248.73986573 -103.5028187 249.10156812 -100.09301758 249.33544922 C-92.78143235 249.88736193 -88.35499118 252.40418024 -83.421875 257.69140625 C-82.24342892 259.09673706 -81.11659587 260.54504175 -80 262 C-79.34 262.33 -78.68 262.66 -78 263 C-74.26582026 270.26393359 -72.53692339 277.92342169 -74 286 C-76.92444137 294.05941637 -80.60249486 301.24189597 -88 306 C-89.175625 306.86625 -89.175625 306.86625 -90.375 307.75 C-98.71768909 311.72270909 -108.04653078 312.09334361 -116.77734375 309.0234375 C-122.17683964 306.50637927 -126.15877251 303.54882203 -130 299 C-130 298.34 -130 297.68 -130 297 C-130.66 297 -131.32 297 -132 297 C-135.99120885 288.96056503 -138.29846831 282.02624572 -137 273 C-136.39225011 271.50478269 -135.74781463 270.02379346 -135.0625 268.5625 C-133.85169398 265.39621385 -133.88189104 264.30956981 -135.11328125 261.08203125 C-136.65859648 258.26894077 -138.27986707 255.52138233 -139.95507812 252.78417969 C-141.71199222 249.78428992 -143.17096419 246.65521308 -144.625 243.5 C-144.9130249 242.87681885 -145.2010498 242.2536377 -145.49780273 241.61157227 C-153 225.15713733 -153 225.15713733 -153 219 C-153.66 219 -154.32 219 -155 219 C-155.19335938 218.20335937 -155.38671875 217.40671875 -155.5859375 216.5859375 C-155.84632813 215.52632812 -156.10671875 214.46671875 -156.375 213.375 C-156.63023437 212.33085937 -156.88546875 211.28671875 -157.1484375 210.2109375 C-157.69762914 208.14013234 -158.3133954 206.08532272 -159.0078125 204.05859375 C-160.12084108 200.62748595 -160.82314677 197.2299438 -161.5 193.6875 C-162.3062699 189.50274519 -163.13305224 185.33295334 -164.125 181.1875 C-166.35176625 171.10287816 -166.18628066 160.84585499 -166.18530273 150.57177734 C-166.1874715 148.03335333 -166.2056297 145.49537776 -166.22460938 142.95703125 C-166.27773801 127.6031352 -165.10317699 112.85171673 -161 98 C-160.6566276 96.43967543 -160.32262794 94.87724553 -160 93.3125 C-158.99839375 88.74780264 -157.59553926 84.38960565 -156 80 C-155.73574219 79.26523438 -155.47148437 78.53046875 -155.19921875 77.7734375 C-148.69973961 60.65146163 -139.62564808 44.60240828 -127.515625 30.86328125 C-125.6330984 28.72059181 -123.87273929 26.56034542 -122.125 24.3125 C-108.99927066 9.12415605 -87.83430191 -1.49096669 -69 -7 C-67.989375 -7.30164062 -66.97875 -7.60328125 -65.9375 -7.9140625 C-44.35917999 -13.46425539 -19.58851147 -10.70613472 0 0 Z " fill="#764ABD" transform="translate(295,59)"/>
<path d="M0 0 C4.56167566 3.11597537 4.56167566 3.11597537 5.88500977 5.78491211 C7.0521247 8.08713807 7.94925534 9.40297399 10 11 C14.3811277 11.87131289 18.69157702 11.89894815 23.13803101 11.84024048 C26.0622529 11.80293513 28.98377592 11.84303761 31.90785217 11.87980652 C33.34233118 11.89734794 34.7768599 11.91122991 36.21141052 11.92134094 C43.61446183 11.97932743 50.70399404 12.72170387 58 14 C58.85722656 14.14872559 59.71445312 14.29745117 60.59765625 14.45068359 C78.51232909 17.59560811 78.51232909 17.59560811 84 20 C86.05619455 20.66563572 88.11927818 21.31023175 90.1875 21.9375 C91.31929687 22.28167969 92.45109375 22.62585938 93.6171875 22.98046875 C95.29167969 23.48513672 95.29167969 23.48513672 97 24 C98.01320313 24.30550781 99.02640625 24.61101562 100.0703125 24.92578125 C102.37943028 25.61983232 104.68923265 26.31146436 107 27 C107 27.66 107 28.32 107 29 C108.175625 29.165 109.35125 29.33 110.5625 29.5 C117.35267429 30.9970463 123.20108106 34.61990487 129.20019531 37.99804688 C131.68973313 39.38397514 134.22369925 40.6825595 136.75 42 C141.58096152 44.63767632 145.94286766 47.73658549 150.33984375 51.0390625 C153.60239295 53.44405472 156.98505191 55.62110084 160.41796875 57.7734375 C161.20107422 58.38058594 161.20107422 58.38058594 162 59 C162 59.66 162 60.32 162 61 C162.52980469 61.21269531 163.05960938 61.42539063 163.60546875 61.64453125 C166.93142062 63.52724789 169.55232179 66.07887502 172.3125 68.6875 C173.18297974 69.50323486 173.18297974 69.50323486 174.07104492 70.33544922 C175.71919879 71.88494029 177.36031608 73.4415569 179 75 C179.70125 75.65871094 180.4025 76.31742187 181.125 76.99609375 C185.86732658 81.57375621 190.20547416 86.60881653 194 92 C194 92.66 194 93.32 194 94 C194.99 94.33 195.98 94.66 197 95 C198.578125 97.08203125 198.578125 97.08203125 200.25 99.8125 C200.85972656 100.80507813 201.46945312 101.79765625 202.09765625 102.8203125 C203.03931641 104.39425781 203.03931641 104.39425781 204 106 C204.92619141 107.54300781 204.92619141 107.54300781 205.87109375 109.1171875 C207.61270132 112.0610661 209.31709722 115.02223217 211 118 C211.38027344 118.66257812 211.76054687 119.32515625 212.15234375 120.0078125 C215.38325893 126.0025226 217.41591517 132.49582041 219.38427734 138.9921875 C219.96287131 140.87892689 220.58357276 142.75260688 221.20703125 144.625 C224.07977531 154.53241413 224.37195961 164.25317327 224.375 174.5 C224.37690338 175.19817841 224.37880676 175.89635681 224.38076782 176.61569214 C224.37840434 184.27708784 224.16193578 191.60400606 222 199 C221.70480469 200.11246094 221.40960938 201.22492188 221.10546875 202.37109375 C217.61862896 214.01862241 212.50698063 224.35526992 205 234 C204.34 234 203.68 234 203 234 C202.75121094 234.57234375 202.50242187 235.1446875 202.24609375 235.734375 C197.70616634 243.98878848 188.66393257 249.89722857 181 255 C180.16855469 255.5573584 180.16855469 255.5573584 179.3203125 256.12597656 C169.68423308 262.50184912 159.97785866 266.50602034 149 270 C147.41602182 270.58158005 145.83254011 271.16451813 144.25 271.75 C133.78472127 275.09475357 122.88150726 275.34760318 111.99951172 275.31567383 C109.76609974 275.31252272 107.53403009 275.33604514 105.30078125 275.36132812 C82.08784852 275.46362986 61.46876711 268.0974589 40 260 C40 258.68 40 257.36 40 256 C42.75 253.9375 42.75 253.9375 46 252 C46.7425 251.4225 47.485 250.845 48.25 250.25 C50 249 50 249 52 249 C52.33 248.01 52.66 247.02 53 246 C54.33333333 245.33333333 55.66666667 244.66666667 57 244 C57.804375 243.154375 58.60875 242.30875 59.4375 241.4375 C62.21169849 238.79862826 63.21327419 238 67 238 C68.70844013 238.65709236 70.41484271 239.32801936 72.06933594 240.11108398 C94.0815065 250.24592377 124.16813667 252.09176261 147 244 C159.16644738 239.2184509 169.96582947 232.46876766 178 222 C178.46664062 221.54367187 178.93328125 221.08734375 179.4140625 220.6171875 C185.44735888 214.46500843 189.23458112 207.07296196 192 199 C192.66 199 193.32 199 194 199 C194.2165625 197.1746875 194.2165625 197.1746875 194.4375 195.3125 C194.70373277 193.06853806 195.02225232 190.89863785 195.50708008 188.69018555 C198.48139649 172.45740074 195.79139193 156.16793124 190 141 C190 139.68 190 138.36 190 137 C189.34 137 188.68 137 188 137 C187.81566406 136.44054687 187.63132812 135.88109375 187.44140625 135.3046875 C184.4771632 127.11020227 179.92075032 120.11900319 175 113 C174.61618164 112.44425293 174.23236328 111.88850586 173.83691406 111.31591797 C169.1677222 104.63965262 164.33342887 99.10391446 158 94 C155.5 91.6875 155.5 91.6875 154 90 C154 89.34 154 88.68 154 88 C153.443125 87.7525 152.88625 87.505 152.3125 87.25 C149.58781512 85.77719736 147.42181505 83.93745204 145 82 C142.61187263 80.43203759 140.2104731 78.88946593 137.79296875 77.3671875 C137.20128906 76.91601562 136.60960937 76.46484375 136 76 C136 75.34 136 74.68 136 74 C135.195625 73.79375 134.39125 73.5875 133.5625 73.375 C130.51427381 72.19849165 128.59032702 71.11250225 125.9765625 69.26171875 C120.82727685 65.77475968 115.43238374 63.07975406 109.8125 60.4375 C108.79945801 59.95788818 107.78641602 59.47827637 106.74267578 58.98413086 C99.2847336 55.49919459 91.85613671 52.47984113 84 50 C82.49953125 49.48566406 82.49953125 49.48566406 80.96875 48.9609375 C62.09108253 42.71605256 42.78648242 40.80475916 23 40 C21.86941162 39.95399658 20.73882324 39.90799316 19.57397461 39.8605957 C18.49639893 39.83570068 17.41882324 39.81080566 16.30859375 39.78515625 C15.34493896 39.76074463 14.38128418 39.73633301 13.38842773 39.71118164 C10.66904647 39.77558761 10.66904647 39.77558761 8.5625 42.6875 C8.046875 43.780625 7.53125 44.87375 7 46 C0.9297087 52.70926934 -6.02919302 57.01180131 -15.0390625 58.2890625 C-24.18757547 58.68999335 -31.99063728 54.55378941 -39 49 C-46.31510098 41.28948816 -48.28121189 33.72593414 -48.234375 23.3515625 C-47.91537115 18.78980742 -46.71726389 15.22160705 -45 11 C-44.34 11 -43.68 11 -43 11 C-42.91621094 10.4225 -42.83242187 9.845 -42.74609375 9.25 C-40.98974396 3.953364 -35.22658623 0.28663089 -30.56640625 -2.40625 C-19.76295877 -7.24619447 -10.20559287 -5.55605343 0 0 Z " fill="#764ABD" transform="translate(245,177)"/>
<path d="M0 0 C0.99 0 1.98 0 3 0 C3.12375 1.03125 3.2475 2.0625 3.375 3.125 C3.94425546 6.65438383 4.85380772 9.62884624 6 13 C7.13871876 17.43093285 8 21.40441083 8 26 C8.66 26 9.32 26 10 26 C9.62319858 28.57665677 9.27990468 29.74429269 7.328125 31.52734375 C6.64234375 31.99269531 5.9565625 32.45804687 5.25 32.9375 C2.64547321 34.77187102 0.31537408 36.5600238 -1.875 38.875 C-2.57625 39.57625 -3.2775 40.2775 -4 41 C-4.66 41 -5.32 41 -6 41 C-6.2475 41.556875 -6.495 42.11375 -6.75 42.6875 C-8.52134847 45.96449468 -10.73568313 48.79424821 -13.43359375 51.3671875 C-15.2778807 53.28966118 -16.66481576 55.3355356 -18.125 57.5625 C-18.64320312 58.34753906 -19.16140625 59.13257813 -19.6953125 59.94140625 C-21.01784231 61.95146388 -21.01784231 61.95146388 -22 64 C-22.66 64 -23.32 64 -24 64 C-24.15855469 64.53367187 -24.31710938 65.06734375 -24.48046875 65.6171875 C-25.82303655 69.90450347 -27.35540245 73.79772054 -29.5 77.75 C-37.71464432 93.88237379 -37.82648372 115.5353806 -32.9609375 132.65625 C-26.02783733 153.23190212 -13.82693268 168.50493756 5.59375 178.46484375 C31.74273445 190.24987917 65.41132754 188.44332845 92.12353516 179.61279297 C93.79535837 179.06682936 95.48098602 178.56355652 97.16796875 178.06640625 C120.09022244 171.10620776 141.15334298 156.34858821 160 142 C161.26457031 141.06607422 161.26457031 141.06607422 162.5546875 140.11328125 C166.78220884 136.94619876 170.32408722 133.74494267 173.65625 129.64453125 C175.62493297 127.23518377 177.70567194 125.10313406 180 123 C180.66 123 181.32 123 182 123 C182.2475 122.2575 182.495 121.515 182.75 120.75 C184.0983193 117.78369755 185.64183849 116.20602206 188 114 C188.33 113.34 188.66 112.68 189 112 C189.66 112 190.32 112 191 112 C191.3403125 111.01 191.3403125 111.01 191.6875 110 C193.3878815 106.11341372 195.39623084 102.36320183 198 99 C198.66 99 199.32 99 200 99 C200.37125 97.7625 200.37125 97.7625 200.75 96.5 C202.18704811 92.47626529 204.02354515 88.78020976 206 85 C205.13375 84.319375 205.13375 84.319375 204.25 83.625 C198.63172507 77.07034592 197.31268903 69.64198833 197.62109375 61.17578125 C198.62839932 52.73310671 202.4462631 45.50456411 209 40 C211.21875 39.28515625 211.21875 39.28515625 213 39 C213 38.34 213 37.68 213 37 C221.12926991 32.93536504 230.94324915 32.55668916 239.75390625 34.65625 C245.19616564 36.85208335 250.17587121 40.55152365 254 45 C254.71875 47.21875 254.71875 47.21875 255 49 C255.66 49 256.32 49 257 49 C261.42818105 60.2319957 261.55321279 67.18490186 257.24609375 78.40234375 C255.45861827 82.12858573 253.18282554 85.33552033 250 88 C249.34 88 248.68 88 248 88 C248 88.66 248 89.32 248 90 C246.44148245 90.82011312 244.87798284 91.63076213 243.3125 92.4375 C242.44238281 92.88996094 241.57226562 93.34242188 240.67578125 93.80859375 C238 95 238 95 235.3125 95.375 C232.82155152 95.77439653 232.82155152 95.77439653 231.63671875 98.06640625 C231.32347656 98.89011719 231.01023437 99.71382813 230.6875 100.5625 C230.36136719 101.38878906 230.03523438 102.21507812 229.69921875 103.06640625 C229.46847656 103.70449219 229.23773438 104.34257812 229 105 C228.34 105 227.68 105 227 105 C226.62875 106.28197266 226.62875 106.28197266 226.25 107.58984375 C224.90986432 111.2459014 223.12976906 114.33296227 221 117.5625 C220.60554688 118.16674805 220.21109375 118.77099609 219.8046875 119.39355469 C213.56188852 128.82155535 206.60987588 137.59227514 198.91015625 145.87890625 C196.96448576 147.95982323 196.96448576 147.95982323 195.37109375 150.27734375 C194.69240234 151.13005859 194.69240234 151.13005859 194 152 C193.34 152 192.68 152 192 152 C191.731875 152.639375 191.46375 153.27875 191.1875 153.9375 C190 156 190 156 187 157 C187 157.66 187 158.32 187 159 C184.03067946 161.76105157 180.80733107 164.21408331 177.62060547 166.71923828 C176.05948832 167.95298648 174.51567204 169.20853025 172.97265625 170.46484375 C165.1051459 176.74496236 156.84535337 181.93011681 148.06396484 186.84033203 C146.17195052 187.90338716 144.29813949 188.99268909 142.42578125 190.08984375 C126.33563306 199.31489219 108.28464574 205.30326561 90.26806641 209.46923828 C87.99717481 210.00066114 85.73998165 210.57466893 83.48046875 211.15234375 C57.68875327 217.4696364 31.15584767 216.07631698 6 208 C4.51306641 207.55527344 4.51306641 207.55527344 2.99609375 207.1015625 C-8.27716963 203.43901195 -19.21032438 196.96470096 -28.30078125 189.41015625 C-30.15621278 187.82038159 -30.15621278 187.82038159 -33 186 C-33 185.34 -33 184.68 -33 184 C-33.556875 183.814375 -34.11375 183.62875 -34.6875 183.4375 C-37.56285672 181.6501161 -38.9118075 179.55027255 -40.75390625 176.75390625 C-41.9343558 174.97974123 -41.9343558 174.97974123 -43.42602539 173.61694336 C-48.42185323 168.48473182 -51.37470096 161.51614515 -54.125 155 C-54.47119385 154.18345947 -54.8173877 153.36691895 -55.17407227 152.52563477 C-57.91564805 145.78171092 -59.44408381 139.20842452 -60.52734375 132.02734375 C-60.82911087 129.08853989 -60.82911087 129.08853989 -62 127 C-62.21306317 122.70256954 -62.18579234 118.40100718 -62.18530273 114.09887695 C-62.18746696 111.97000461 -62.20556045 109.8416697 -62.22460938 107.71289062 C-62.25441751 100.54819408 -61.98434859 93.90711381 -60 87 C-59.68289062 85.52660156 -59.68289062 85.52660156 -59.359375 84.0234375 C-56.24662084 70.49492905 -50.50629633 58.02548582 -43.4375 46.125 C-43.03853516 45.43664062 -42.63957031 44.74828125 -42.22851562 44.0390625 C-41.20942964 42.32413983 -40.1109277 40.65690545 -39 39 C-38.34 39 -37.68 39 -37 39 C-36.77957031 38.29875 -36.55914062 37.5975 -36.33203125 36.875 C-34.68932341 33.32944877 -32.35471086 30.7911848 -29.6875 28 C-29.21376953 27.49210937 -28.74003906 26.98421875 -28.25195312 26.4609375 C-25.23371907 23.2403868 -22.13355008 20.10864109 -19 17 C-18.19949219 16.18144531 -17.39898437 15.36289063 -16.57421875 14.51953125 C-13.75866714 11.76379409 -10.83572894 9.20997161 -7.8125 6.6875 C-7.27947266 6.23310547 -6.74644531 5.77871094 -6.19726562 5.31054688 C-2.23954417 2 -2.23954417 2 0 2 C0 1.34 0 0.68 0 0 Z " fill="#764ABD" transform="translate(106,236)"/>
<path d="M0 0 C2.23551759 3.35327639 2.17283528 3.90743657 1.625 7.6875 C1.51414062 8.49574219 1.40328125 9.30398438 1.2890625 10.13671875 C1.19367188 10.75160156 1.09828125 11.36648438 1 12 C0.34 11.67 -0.32 11.34 -1 11 C-1.02688151 9.35425434 -1.04634123 7.70838587 -1.0625 6.0625 C-1.07410156 5.14597656 -1.08570313 4.22945313 -1.09765625 3.28515625 C-1 1 -1 1 0 0 Z " fill="#5B38AD" transform="translate(365,294)"/>
<path d="M0 0 C0 3 0 3 -1.75 5.04296875 C-2.4925 5.75066406 -3.235 6.45835937 -4 7.1875 C-4.7425 7.90292969 -5.485 8.61835938 -6.25 9.35546875 C-6.8275 9.89816406 -7.405 10.44085938 -8 11 C-8 8 -8 8 -5.6875 5.5 C-4.800625 4.675 -3.91375 3.85 -3 3 C-2.401875 2.401875 -1.80375 1.80375 -1.1875 1.1875 C-0.795625 0.795625 -0.40375 0.40375 0 0 Z " fill="#7C4EC6" transform="translate(212,178)"/>
<path d="M0 0 C0.99 0 1.98 0 3 0 C2.67 0.66 2.34 1.32 2 2 C1.34 2 0.68 2 0 2 C0 1.34 0 0.68 0 0 Z M-2 2 C-1.01 2.33 -0.02 2.66 1 3 C-0.485 5.475 -0.485 5.475 -2 8 C-2.66 7.01 -3.32 6.02 -4 5 C-3.34 4.01 -2.68 3.02 -2 2 Z " fill="#7A4FC5" transform="translate(297,346)"/>
<path d="M0 0 C1.03159626 3.09478879 0.97482862 4.52631393 0.5625 7.6875 C0.46066406 8.49574219 0.35882813 9.30398438 0.25390625 10.13671875 C0.17011719 10.75160156 0.08632813 11.36648438 0 12 C-0.33 12 -0.66 12 -1 12 C-1.33 8.37 -1.66 4.74 -2 1 C-1.34 0.67 -0.68 0.34 0 0 Z " fill="#7A4EC5" transform="translate(49,317)"/>
<path d="M0 0 C1.4606285 2.64738916 2 3.89448334 2 7 C1.01 7 0.02 7 -1 7 C-1.33 5.35 -1.66 3.7 -2 2 C-1.34 2 -0.68 2 0 2 C0 1.34 0 0.68 0 0 Z " fill="#7A4FC6" transform="translate(307,305)"/>
</svg>
