<?xml version="1.0" encoding="UTF-8"?>
<svg version="1.1" xmlns="http://www.w3.org/2000/svg" width="512" height="512">
<path d="M0 0 C1.24311943 -0.00706559 2.48623886 -0.01413118 3.76702857 -0.02141088 C5.14891704 -0.01915946 6.5308052 -0.01671295 7.91269302 -0.01409245 C9.37887542 -0.01854389 10.8450554 -0.02385763 12.31123185 -0.02996117 C16.34572831 -0.04416296 20.38014782 -0.04580405 24.4146657 -0.04536426 C28.76381689 -0.04701056 33.11293619 -0.06007358 37.46207047 -0.07155704 C46.97446361 -0.09442093 56.48683447 -0.10232917 65.99925137 -0.10738349 C71.93789312 -0.11063893 77.87652839 -0.11716049 83.81516647 -0.12438488 C100.25487815 -0.14395272 116.69458379 -0.16035582 133.13430786 -0.16326141 C134.18662449 -0.16344898 135.23894111 -0.16363655 136.32314612 -0.16382981 C138.45648845 -0.16419606 140.58983078 -0.16455976 142.72317311 -0.16492092 C143.78218014 -0.16510373 144.84118716 -0.16528654 145.93228531 -0.16547489 C147.52273286 -0.16574572 147.52273286 -0.16574572 149.14531067 -0.16602201 C166.32773542 -0.169564 183.51003487 -0.1965871 200.69241616 -0.23397278 C218.3298217 -0.27204166 235.96716504 -0.29141879 253.60461259 -0.29172093 C263.50881879 -0.29230582 273.41287554 -0.30081845 283.3170433 -0.32971859 C291.75037444 -0.35421351 300.18350161 -0.36152817 308.61685869 -0.34647106 C312.91969302 -0.33929436 317.22212445 -0.34019209 321.52491379 -0.36288166 C325.46558022 -0.38346257 329.40553376 -0.38088019 333.34619239 -0.36000682 C334.770168 -0.35651016 336.19419495 -0.36142958 337.61810324 -0.37571125 C345.62995702 -0.45087707 351.81178424 -0.2653568 357.97037125 5.26006222 C362.44758938 10.09074495 364.21795178 13.69991093 364.23322678 20.28689766 C364.24090907 21.52940039 364.24859136 22.77190312 364.25650644 24.05205745 C364.25494596 25.43325681 364.25318839 26.81445597 364.25125504 28.19565487 C364.2564224 29.66112497 364.26244874 31.12659225 364.26926184 32.59205562 C364.28540791 36.62461718 364.28898131 40.65710756 364.29045677 44.68969762 C364.29415687 49.03682611 364.30925109 53.38391762 364.3227272 57.73102474 C364.34989962 67.23934825 364.36194429 76.7476549 364.37074852 86.25601077 C364.37627264 92.19265046 364.38474724 98.12928364 364.39375687 104.06591892 C364.41814342 120.50133734 364.43874151 136.93675054 364.44550705 153.37218666 C364.44616575 154.95028426 364.44616575 154.95028426 364.44683775 156.56026261 C364.44727431 157.61485256 364.44771086 158.66944251 364.44816065 159.75598973 C364.44904758 161.89300804 364.44994071 164.03002634 364.45084 166.16704464 C364.45150429 167.75709873 364.45150429 167.75709873 364.45218199 169.37927512 C364.46007754 186.55457996 364.49498366 203.72971506 364.54155904 220.90495434 C364.5889866 238.53671469 364.61391078 256.16838988 364.61624289 273.80021507 C364.61807644 283.70057212 364.62958195 293.60070806 364.66588211 303.50100422 C364.69668503 311.93176686 364.70692481 320.36224007 364.69040591 328.79304828 C364.68259273 333.09405015 364.68445072 337.39446916 364.7125206 341.69539928 C364.7380008 345.6356017 364.73560464 349.57478345 364.71133918 353.51498447 C364.70742523 354.93763641 364.71358287 356.36036066 364.7310279 357.78291102 C364.83130231 366.51509849 364.11066445 372.72510727 357.97037125 379.26006222 C353.34263353 383.24394975 349.11898167 384.38421287 343.09502506 384.39428329 C341.24378268 384.40097006 341.24378268 384.40097006 339.35514146 384.40779191 C337.97817154 384.40770261 336.60120162 384.40751275 335.22423172 384.40723324 C333.76716377 384.41053187 332.31009673 384.41425744 330.85303086 384.41837472 C326.83909531 384.42840292 322.8251747 384.43211283 318.81122839 384.43476403 C314.48592786 384.43866464 310.16063919 384.44824314 305.83534622 384.45697689 C295.38485726 384.47674808 284.93436733 384.4868083 274.48386434 384.49570468 C269.56418134 384.50008648 264.64449942 384.50545356 259.72481728 384.51069355 C243.37350341 384.52770642 227.02219023 384.54220104 210.67086887 384.54944229 C206.42670885 384.55135223 202.18254883 384.55327255 197.93838882 384.55522823 C196.35606486 384.55595384 196.35606486 384.55595384 194.74177476 384.55669411 C177.64984056 384.56499605 160.55797631 384.59033547 143.46607266 384.62280891 C125.92362513 384.655867 108.38121317 384.67388992 90.83873433 384.67708653 C80.98706964 384.67925278 71.13550696 384.6880182 61.2838726 384.71354771 C52.89445996 384.73523762 44.50517409 384.74331355 36.11573658 384.73358092 C31.83523728 384.72903127 27.55499967 384.73096099 23.27453613 384.75034237 C19.35427513 384.7679395 15.43446737 384.76700463 11.51420178 384.75144508 C10.09759849 384.74906374 8.68096409 384.7534199 7.26440839 384.76527373 C-0.59987209 384.82699508 -6.34556706 384.599142 -13.02962875 380.26006222 C-15.0882225 378.22490597 -15.0882225 378.22490597 -16.46712875 376.19756222 C-16.94021469 375.52596066 -17.41330063 374.85435909 -17.9007225 374.16240597 C-20.06112521 370.52186577 -20.15764707 367.51051255 -20.16664314 363.36909866 C-20.17171769 362.13145368 -20.17679223 360.8938087 -20.18202055 359.61865932 C-20.18262223 358.23775919 -20.18312131 356.85685902 -20.1835289 355.47595882 C-20.18754322 354.01476588 -20.19198139 352.55357405 -20.19680846 351.09238356 C-20.20878314 347.06704861 -20.21442447 343.04172565 -20.21898961 339.01637638 C-20.22494228 334.67880425 -20.23655293 330.34124649 -20.24728012 326.00368404 C-20.27181125 315.52353545 -20.28643203 305.04338209 -20.29934019 294.56321362 C-20.30305151 291.60385142 -20.30702479 288.6444897 -20.31109285 285.68512797 C-20.33632801 267.3132262 -20.35838407 248.9413237 -20.370821 230.56940842 C-20.37375076 226.31321682 -20.37671241 222.05702524 -20.37972641 217.8008337 C-20.38047246 216.74296045 -20.38121851 215.68508719 -20.38198717 214.59515717 C-20.3946433 197.4547068 -20.42786947 180.31436011 -20.46952824 163.17395822 C-20.51193501 145.58179086 -20.53551455 127.9896766 -20.54074156 110.39745826 C-20.54415703 100.51782123 -20.55592829 90.63834625 -20.5888443 80.7587595 C-20.61682864 72.34554148 -20.62785123 63.93251871 -20.61664884 55.51925776 C-20.6114581 51.22654993 -20.61437568 46.93425108 -20.63911438 42.64160252 C-20.66158235 38.71015812 -20.66088663 34.77941707 -20.64191051 30.84796055 C-20.63910702 29.42731546 -20.64472863 28.00662291 -20.65972345 26.58605418 C-20.73904849 18.58016876 -20.54835766 12.41467415 -15.02962875 6.26006222 C-10.19728556 1.78130511 -6.58938926 0.01195196 0 0 Z " fill="#115999" transform="translate(84.02962875366211,63.7399377822876)"/>
<path d="M0 0 C1.51001587 0.01244751 1.51001587 0.01244751 3.05053711 0.02514648 C19.27140789 0.3898792 35.33062671 5.36755324 47 17.0625 C50.08699446 20.29296797 52.85797819 23.39412498 54.8125 27.4375 C53.50629787 31.35610638 51.12533992 32.52503401 47.80859375 34.66796875 C47.21071548 35.06325272 46.61283722 35.45853668 45.99684143 35.86579895 C44.08614744 37.12653423 42.16827136 38.37583167 40.25 39.625 C38.95328717 40.47777272 37.65705685 41.33127962 36.36132812 42.18554688 C33.18392159 44.27809162 30.00002783 46.36040866 26.8125 48.4375 C26.03527588 47.65270264 25.25805176 46.86790527 24.45727539 46.05932617 C22.14347131 43.76559941 19.82259052 41.74096136 17.25 39.75 C16.50621094 39.16863281 15.76242187 38.58726562 14.99609375 37.98828125 C9.1292333 33.82165585 3.90652118 33.67674706 -3.1875 34.4375 C-8.07261372 36.70558851 -10.7460819 39.64856449 -13.1875 44.4375 C-13.84043024 49.66094192 -13.032608 53.02267724 -10.1875 57.4375 C-6.52709378 60.71675081 -2.58202707 62.93716904 1.8125 65.0625 C2.49747559 65.40095947 3.18245117 65.73941895 3.88818359 66.08813477 C7.91439741 68.06635557 11.96752949 69.98025339 16.0390625 71.86328125 C35.358738 80.82630646 53.34572885 89.84979253 62.625 110.125 C67.50308414 123.73228733 67.61872122 138.53451874 61.47387695 151.76123047 C54.49378533 166.03554588 45.07619733 172.74404965 30.24609375 178.39453125 C8.22630907 185.08313479 -15.73969248 183.14100943 -35.97265625 172.34765625 C-46.72049408 166.15230958 -56.1413775 156.27654869 -62.1875 145.4375 C-62.1875 144.7775 -62.1875 144.1175 -62.1875 143.4375 C-61.18332031 142.880625 -60.17914063 142.32375 -59.14453125 141.75 C-57.76281659 140.97953282 -56.38132223 140.2086705 -55 139.4375 C-54.2790918 139.03684326 -53.55818359 138.63618652 -52.81542969 138.22338867 C-49.2688664 136.23576717 -45.77632659 134.21072901 -42.37109375 131.98828125 C-41.78932373 131.61123047 -41.20755371 131.23417969 -40.6081543 130.84570312 C-39.01670338 129.80194575 -37.43766983 128.73932764 -35.859375 127.67578125 C-33.1875 126.4375 -33.1875 126.4375 -31.03515625 126.99609375 C-29.01319334 128.5734813 -27.49175251 130.1964635 -25.875 132.1875 C-19.74027248 139.39254168 -12.75405117 145.57783398 -3.1875 147.4375 C5.78722145 148.03674382 13.98839466 147.23865555 21.8125 142.4375 C25.42552388 138.53152823 26.95107213 135.42522312 27.125 130.125 C27.18107422 129.01705078 27.18107422 129.01705078 27.23828125 127.88671875 C26.59873572 124.20786513 25.21621405 122.30189494 22.8125 119.4375 C20.03764241 117.51188708 17.093797 116.04213697 14.0625 114.5625 C13.21921143 114.13469238 12.37592285 113.70688477 11.50708008 113.26611328 C8.95011161 111.97332618 6.38329413 110.70253384 3.8125 109.4375 C2.37345615 108.72444604 0.93463804 108.01093625 -0.50390625 107.296875 C-1.50587036 106.79957886 -1.50587036 106.79957886 -2.52807617 106.29223633 C-3.17881104 105.96892334 -3.8295459 105.64561035 -4.5 105.3125 C-5.47126831 104.83043091 -5.47126831 104.83043091 -6.4621582 104.33862305 C-24.87691341 95.13705012 -41.97923625 84.98079349 -49.44140625 64.76171875 C-53.64521393 51.6660875 -51.63621115 36.88055088 -45.5625 24.75 C-38.47310715 12.67370581 -27.2768587 4.83575299 -13.89770508 1.02636719 C-9.26597326 0.01999505 -4.72471822 -0.05064904 0 0 Z " fill="#FDFDFE" transform="translate(350.1875,234.5625)"/>
<path d="M0 0 C45.87 0 91.74 0 139 0 C139 10.56 139 21.12 139 32 C121.51 32 104.02 32 86 32 C86 81.17 86 130.34 86 181 C75.11 181 64.22 181 53 181 C53 131.83 53 82.66 53 32 C35.51 32 18.02 32 0 32 C0 21.44 0 10.88 0 0 Z " fill="#FBFCFD" transform="translate(149,235)"/>
</svg>
