<?xml version="1.0" standalone="no"?>
<!DOCTYPE svg PUBLIC "-//W3C//DTD SVG 20010904//EN"
 "http://www.w3.org/TR/2001/REC-SVG-20010904/DTD/svg10.dtd">
<svg version="1.0" xmlns="http://www.w3.org/2000/svg"
 width="720.000000pt" height="720.000000pt" viewBox="0 0 720.000000 720.000000"
 preserveAspectRatio="xMidYMid meet">

<g transform="translate(0.000000,720.000000) scale(0.100000,-0.100000)"
fill="#000000" stroke="none">
<path d="M3575 5494 c-462 -31 -807 -161 -1042 -392 -188 -184 -273 -386 -273
-647 1 -176 41 -324 127 -467 169 -280 484 -488 1033 -681 255 -90 352 -127
450 -175 94 -45 127 -68 181 -121 86 -86 109 -144 109 -274 0 -81 -4 -100 -29
-153 -17 -36 -45 -75 -71 -97 -52 -44 -161 -91 -250 -107 -69 -13 -237 -7
-339 11 -268 49 -407 203 -428 476 l-6 83 -443 0 -444 0 0 -74 c0 -81 27 -227
60 -321 105 -303 348 -555 660 -686 274 -114 517 -163 810 -162 338 2 582 50
815 164 377 183 555 463 555 874 0 403 -189 709 -581 938 -172 101 -396 197
-633 272 -385 122 -596 243 -666 381 -38 76 -35 170 8 257 38 76 86 122 176
166 93 46 165 61 296 61 137 -1 182 -10 277 -56 134 -66 216 -183 237 -336
l10 -78 438 0 438 0 0 70 c0 118 -39 275 -100 402 -128 266 -355 460 -668 572
-203 72 -496 114 -707 100z"/>
</g>
</svg>
